<?xml version="1.0" standalone="no"?>
<!DOCTYPE svg PUBLIC "-//W3C//DTD SVG 20010904//EN"
 "http://www.w3.org/TR/2001/REC-SVG-20010904/DTD/svg10.dtd">
<svg version="1.0" xmlns="http://www.w3.org/2000/svg"
 width="200.000000pt" height="200.000000pt" viewBox="0 0 200.000000 200.000000"
 preserveAspectRatio="xMidYMid meet">

<g transform="translate(0.000000,200.000000) scale(0.100000,-0.100000)"
fill="#000000" stroke="none">
<path d="M644 1981 c-59 -19 -164 -72 -164 -83 0 -4 -15 -14 -33 -23 -37 -17
-147 -111 -147 -125 0 -5 -11 -21 -25 -36 -32 -34 -31 -52 3 -89 15 -16 32
-38 37 -50 6 -11 19 -21 30 -21 11 -1 33 -7 48 -13 16 -6 51 -11 78 -11 27 0
49 -4 49 -9 0 -5 -17 -24 -38 -42 -77 -68 -159 -244 -177 -380 -5 -42 -10 -48
-63 -82 -31 -20 -65 -43 -75 -51 -10 -8 -40 -17 -65 -21 -81 -11 -85 -13 -79
-50 3 -18 18 -52 33 -76 16 -24 36 -60 45 -80 17 -36 67 -94 75 -86 3 3 -11
21 -31 41 -55 57 -45 69 35 41 23 -8 63 -15 89 -15 40 -1 44 -2 29 -13 -46
-35 -75 -225 -44 -285 l15 -30 -75 -7 c-106 -10 -137 -46 -90 -104 15 -19 106
-61 132 -61 31 0 35 -9 18 -48 -14 -33 -13 -38 4 -61 10 -14 32 -29 48 -33 34
-10 151 -1 159 13 10 15 19 11 61 -28 46 -43 90 -53 264 -59 98 -3 110 -1 84
9 -26 10 -30 16 -23 32 14 37 9 55 -26 94 -28 30 -35 47 -35 78 0 64 66 100
115 63 21 -16 129 -32 174 -25 61 9 209 69 233 95 10 11 20 20 22 20 1 0 2
-61 1 -135 l-1 -136 -37 -24 c-20 -14 -43 -25 -51 -25 -9 0 -16 -4 -16 -9 0
-4 -26 -13 -57 -19 -32 -7 -67 -13 -78 -16 -11 -2 22 -4 73 -5 92 -1 152 15
152 39 0 6 24 10 53 11 86 2 96 8 145 89 25 41 49 77 53 80 14 10 29 61 29
100 0 28 6 43 21 53 11 8 31 29 44 47 13 17 41 40 62 51 50 25 83 88 83 161 0
39 -9 72 -37 133 -21 44 -41 81 -45 83 -17 8 -6 21 21 27 16 3 35 13 42 21 6
8 17 14 23 14 15 0 38 53 40 92 1 27 -4 32 -45 48 -123 49 -122 48 -106 65 9
8 22 15 30 15 15 0 49 34 66 67 25 50 3 113 -40 113 -48 0 -134 38 -166 74
-17 18 -40 53 -50 77 -11 25 -34 61 -52 81 -17 20 -31 40 -31 46 0 9 -48 35
-129 69 l-33 14 25 27 c38 39 67 110 67 164 0 37 -6 55 -33 90 -31 41 -36 43
-87 45 l-55 2 35 -15 c19 -9 52 -29 72 -46 31 -24 38 -36 38 -64 0 -19 -7 -48
-15 -65 l-16 -30 -29 25 c-20 17 -48 27 -87 32 -32 4 -61 12 -65 18 -12 19
-20 -2 -8 -23 12 -23 6 -41 -14 -41 -7 0 -31 16 -53 35 -23 19 -44 35 -47 35
-3 0 -1 -12 4 -27 5 -16 11 -44 14 -64 4 -21 13 -43 21 -49 12 -10 14 -25 9
-64 -4 -28 -8 -52 -9 -54 -7 -8 -37 14 -60 44 -20 27 -23 37 -14 51 15 25 -1
133 -22 146 -20 12 -43 -7 -59 -47 -8 -21 -16 -26 -45 -26 -33 0 -36 2 -30 23
4 12 3 17 -2 10 -4 -6 -26 -14 -48 -18 -82 -13 -135 -27 -135 -36 0 -5 -8 -9
-17 -9 -10 0 -61 -14 -113 -32 -69 -24 -104 -43 -131 -69 -41 -41 -58 -39 -79
11 -10 25 -10 34 4 55 23 34 94 101 125 117 49 25 126 72 136 84 6 6 48 29 95
49 47 21 87 39 89 41 12 10 -71 0 -115 -15z m316 -230 c0 -16 -4 -41 -10 -55
-9 -24 -15 -26 -67 -26 -32 0 -84 -6 -116 -14 -47 -11 -68 -11 -118 -1 -33 7
-63 15 -66 18 -3 3 15 11 38 17 24 7 62 18 84 25 67 22 105 28 105 16 0 -15
72 -14 105 1 14 6 25 19 25 30 0 10 5 18 10 18 6 0 10 -13 10 -29z m167 -13
c-3 -8 -6 -5 -6 6 -1 11 2 17 5 13 3 -3 4 -12 1 -19z m140 -113 c29 -8 58 -21
65 -28 7 -7 36 -26 65 -41 55 -30 116 -96 105 -113 -8 -12 -78 -43 -97 -43 -8
0 -27 24 -44 54 -43 74 -64 91 -43 33 8 -24 12 -54 9 -68 -10 -40 -46 -79 -73
-79 -31 0 -39 -29 -39 -145 0 -86 19 -185 35 -185 5 0 13 -14 19 -30 5 -17 20
-44 31 -60 19 -26 19 -31 6 -36 -21 -8 -114 14 -151 37 -44 26 -107 99 -101
115 3 8 -1 14 -9 14 -14 0 -64 137 -66 183 -1 20 -2 20 -6 2 -24 -114 -37
-155 -49 -155 -8 0 -14 -6 -14 -14 0 -31 -57 -124 -107 -174 -57 -58 -60 -62
-39 -62 21 0 110 100 135 153 22 46 24 47 67 47 35 0 49 -5 67 -25 59 -68 87
-90 142 -116 35 -17 77 -29 100 -29 22 0 59 -10 81 -22 36 -19 45 -20 71 -9
31 12 63 65 63 101 0 32 -29 23 -44 -14 -11 -28 -22 -36 -50 -41 -30 -6 -38
-3 -65 27 -40 43 -71 142 -71 224 0 36 -4 64 -10 64 -5 0 -10 7 -10 15 0 26
15 16 53 -35 43 -58 44 -64 15 -84 -12 -9 -19 -19 -15 -22 4 -4 18 3 32 16
l24 23 33 -29 c19 -16 57 -45 86 -64 29 -19 54 -44 56 -55 3 -11 9 -38 14 -60
l10 -40 1 53 c1 46 -3 57 -25 75 -15 12 -45 38 -68 57 -22 19 -50 40 -61 46
-33 18 -30 43 7 59 18 8 25 14 16 15 -9 0 -29 -5 -44 -12 -24 -11 -29 -10 -58
24 -67 77 -76 91 -76 118 0 25 4 28 42 33 74 10 131 -9 167 -54 18 -21 39 -56
48 -77 22 -53 63 -192 63 -214 0 -11 7 -27 16 -36 16 -15 16 -13 9 33 -4 28
-10 52 -14 55 -4 3 -15 32 -25 65 -10 33 -20 69 -24 80 -5 18 -4 19 13 5 17
-14 17 -14 2 17 -54 104 -66 174 -35 210 16 19 24 16 37 -15 13 -32 83 -90
118 -98 13 -4 23 -10 23 -15 0 -5 23 -9 50 -9 45 0 50 -2 50 -23 0 -12 -7 -33
-16 -46 -19 -27 -87 -60 -124 -61 -14 0 -20 -4 -15 -8 6 -4 17 -20 27 -37 22
-40 65 -64 127 -72 28 -3 51 -9 51 -13 0 -4 -7 -22 -16 -40 -20 -39 -88 -72
-151 -74 -47 -1 -60 -16 -14 -16 39 0 51 -35 58 -162 10 -175 -44 -285 -156
-323 -48 -16 -111 -14 -111 4 0 4 14 20 30 36 33 31 60 106 60 163 0 32 25
101 41 112 7 5 12 61 10 108 -1 12 -7 22 -14 22 -9 0 -11 -12 -9 -39 9 -93
-49 -168 -168 -218 -41 -17 -76 -30 -78 -29 -1 2 2 16 7 32 5 16 12 55 15 87
l6 57 -62 0 c-35 0 -69 -4 -77 -9 -9 -6 -24 -5 -39 2 -21 10 -27 8 -43 -13
-11 -14 -23 -30 -27 -35 -13 -15 -22 -86 -16 -112 3 -12 12 -24 19 -27 11 -4
13 5 9 42 -3 27 0 64 8 87 l13 39 65 2 c69 2 101 -10 120 -46 17 -32 -5 -94
-51 -141 -38 -38 -44 -41 -82 -36 -23 3 -43 11 -45 16 -2 6 -27 11 -55 11 -70
1 -163 22 -214 49 -32 17 -48 35 -65 71 -13 27 -26 49 -30 50 -10 0 -10 -27 0
-32 4 -2 20 -23 35 -48 67 -111 140 -178 212 -196 14 -3 27 -9 29 -13 6 -9
-26 -46 -51 -60 -40 -21 -131 -10 -153 19 -3 3 -26 21 -52 38 -25 18 -58 47
-72 64 -14 18 -26 28 -26 21 0 -6 23 -35 50 -63 55 -56 61 -70 30 -70 -11 0
-20 4 -20 9 0 5 -13 12 -30 16 -16 4 -45 17 -65 31 -20 13 -39 24 -43 24 -14
0 -67 63 -90 106 -12 23 -28 68 -36 100 -12 50 -14 54 -15 24 0 -19 10 -66 24
-105 25 -73 25 -71 172 -202 l48 -43 -70 0 c-71 0 -155 27 -155 50 0 6 -11 15
-24 21 -42 19 -66 85 -66 180 0 46 -4 79 -8 74 -17 -19 -52 -121 -59 -173 l-8
-52 -29 26 c-26 25 -28 31 -24 86 2 33 9 63 14 66 5 4 18 27 29 52 30 69 66
130 76 130 5 0 9 7 9 16 0 10 -6 14 -17 10 -102 -29 -138 -29 -216 0 -45 17
-65 35 -95 85 -26 43 -19 49 49 49 52 0 96 19 140 61 19 19 43 39 53 44 12 7
19 26 23 60 5 59 46 187 73 230 50 80 248 255 289 255 5 0 17 7 26 16 20 20
99 40 190 49 l70 6 38 -40 c41 -44 57 -45 57 -5 0 13 5 24 10 24 6 0 10 7 10
16 0 14 8 16 58 11 31 -4 80 -13 109 -22z m-707 -35 c0 -5 -7 -10 -15 -10 -8
0 -15 5 -15 10 0 6 7 10 15 10 8 0 15 -4 15 -10z m428 -472 c6 -18 13 -41 17
-50 5 -13 2 -18 -11 -18 -37 0 -43 12 -31 58 6 23 12 42 14 42 1 0 6 -15 11
-32z m778 -413 c18 -45 18 -108 -1 -145 -15 -30 -52 -56 -62 -46 -9 8 18 116
29 116 4 0 8 25 8 55 0 30 2 55 6 55 3 0 12 -16 20 -35z m-256 -132 c0 -38
-22 -93 -37 -93 -7 0 -13 7 -13 15 0 9 -7 26 -15 39 -15 23 -14 25 17 45 43
27 48 26 48 -6z m-110 -70 c0 -26 -8 -45 -27 -65 -23 -24 -53 -37 -53 -24 0
12 65 126 72 126 4 0 8 -17 8 -37z m39 -74 c-13 -10 -30 -19 -37 -19 -8 0 4
-17 25 -37 34 -34 43 -38 87 -36 l48 1 -6 -36 c-9 -58 -66 -121 -66 -74 0 30
-47 81 -91 99 -33 13 -38 19 -36 43 1 20 14 37 42 58 42 31 74 32 34 1z m-305
-104 c65 0 72 -10 19 -24 -109 -28 -120 -25 -108 30 6 28 8 29 20 12 10 -14
27 -18 69 -18z m-319 -6 c8 -12 -8 -25 -94 -76 -35 -21 -66 -44 -68 -50 -6
-15 -53 -18 -53 -3 0 6 -24 10 -53 10 -48 0 -55 -3 -66 -26 -11 -24 -13 -25
-33 -12 -34 23 -43 64 -23 102 27 50 45 57 95 40 74 -25 161 -33 198 -18 18 7
31 18 28 23 -4 5 6 12 21 14 16 2 31 5 35 6 4 0 10 -4 13 -10z m-49 -94 c9 -8
11 -15 5 -15 -6 0 -11 -10 -11 -21 0 -12 -19 -41 -43 -65 -70 -69 -119 -71
-189 -5 -57 53 -46 64 52 55 61 -5 79 -3 86 8 10 16 65 57 77 58 5 0 15 -7 23
-15z m43 -104 c33 -31 42 -71 16 -71 -8 0 -15 -4 -15 -10 0 -17 -88 -12 -109
7 -20 16 -20 17 17 59 20 23 42 43 48 43 7 1 26 -12 43 -28z"/>
<path d="M794 1353 c-10 -15 -22 -30 -26 -33 -10 -8 -45 -124 -57 -194 -16
-86 -13 -226 5 -307 19 -82 29 -88 14 -8 -19 95 -13 293 11 389 12 47 24 87
28 90 12 9 52 82 47 87 -2 3 -13 -8 -22 -24z"/>
<path d="M1021 843 c-26 -18 -105 -22 -153 -8 -24 6 -28 4 -28 -13 0 -33 46
-62 99 -62 54 0 83 17 105 62 9 17 16 33 16 35 0 8 -17 2 -39 -14z"/>
<path d="M1248 773 c7 -3 16 -2 19 1 4 3 -2 6 -13 5 -11 0 -14 -3 -6 -6z"/>
<path d="M741 735 c1 -19 18 -51 18 -35 0 8 -4 22 -9 30 -5 8 -9 11 -9 5z"/>
<path d="M461 704 c0 -11 3 -14 6 -6 3 7 2 16 -1 19 -3 4 -6 -2 -5 -13z"/>
<path d="M803 1988 c3 -7 17 -44 33 -82 l27 -69 17 44 c10 24 28 55 42 69 14
14 23 31 20 38 -7 23 -37 12 -50 -18 -8 -16 -18 -30 -23 -30 -5 0 -12 14 -15
30 -5 24 -12 30 -31 30 -16 0 -23 -5 -20 -12z"/>
<path d="M1000 1989 c0 -25 90 -84 104 -68 2 2 6 20 10 40 l7 37 -61 1 c-35 0
-60 -4 -60 -10z"/>
<path d="M1955 1079 c-4 -6 -5 -12 -2 -15 2 -3 7 2 10 11 7 17 1 20 -8 4z"/>
<path d="M1986 1067 c3 -10 9 -15 12 -12 3 3 0 11 -7 18 -10 9 -11 8 -5 -6z"/>
<path d="M1920 970 c-12 -16 -19 -30 -16 -30 2 0 14 14 26 30 12 17 19 30 16
30 -2 0 -14 -13 -26 -30z"/>
<path d="M1860 930 c-9 -6 -10 -10 -3 -10 6 0 15 5 18 10 8 12 4 12 -15 0z"/>
<path d="M1888 863 c7 -3 16 -2 19 1 4 3 -2 6 -13 5 -11 0 -14 -3 -6 -6z"/>
<path d="M1931 845 c9 -11 19 -27 22 -35 5 -13 6 -13 6 1 1 9 -9 24 -21 35
-23 19 -23 19 -7 -1z"/>
<path d="M51 744 c0 -11 3 -14 6 -6 3 7 2 16 -1 19 -3 4 -6 -2 -5 -13z"/>
<path d="M1970 756 c0 -2 8 -10 18 -17 15 -13 16 -12 3 4 -13 16 -21 21 -21
13z"/>
<path d="M21 636 l-24 -31 28 27 c16 15 27 29 24 31 -2 3 -15 -10 -28 -27z"/>
<path d="M190 646 c0 -2 7 -7 16 -10 8 -3 12 -2 9 4 -6 10 -25 14 -25 6z"/>
<path d="M166 584 c-5 -14 -4 -15 9 -4 17 14 19 20 6 20 -5 0 -12 -7 -15 -16z"/>
<path d="M65 540 c10 -11 20 -20 23 -20 3 0 -3 9 -13 20 -10 11 -20 20 -23 20
-3 0 3 -9 13 -20z"/>
<path d="M90 501 c0 -6 4 -13 10 -16 6 -3 7 1 4 9 -7 18 -14 21 -14 7z"/>
<path d="M49 398 c7 -9 9 -23 5 -30 -6 -10 -4 -11 7 0 11 10 10 15 -6 30 -17
15 -18 15 -6 0z"/>
</g>
</svg>
